<?xml version="1.0" encoding="UTF-8"?>
<svg xmlns="http://www.w3.org/2000/svg" xmlns:v="https://vecta.io/nano" width="103" height="37" fill="none"><path d="M100.939 18.188c0-9.483-7.739-17.147-17.271-17.147-7.556 0-13.992 4.833-16.334 11.546C64.992 5.873 58.576 1.04 51 1.04S36.967 5.893 34.646 12.647A17.28 17.28 0 0 0 18.332 1.142c-9.552 0-17.271 7.684-17.271 17.147S8.8 35.436 18.332 35.436c7.576 0 14.033-4.853 16.354-11.607C37.049 30.522 43.444 35.314 51 35.314s13.992-4.833 16.334-11.546c2.342 6.713 8.758 11.546 16.334 11.546 9.532.02 17.271-7.664 17.271-17.127" fill="#fc9"/><g fill-rule="evenodd"><path d="M53.159 1.162L51 1.02c-1.202 0-2.383.121-3.523.364l5.051 9.423-.244.121-5.071-9.483c-5.866 1.314-10.57 5.54-12.525 11.081l18.493 2.588.367-1.618.265.061-3.829 16.419c.733.243 1.263.93 1.263 1.739 0 .04-.005.086-.01.131h0c-.005.046-.01.091-.01.131l6.354 2.042c3.238-1.335 5.988-3.62 7.882-6.531L61.611 9.533c-.367 0-.692-.142-.957-.384l-4.745 3.559-.122-.182 4.746-3.539c-.163-.222-.244-.485-.244-.789 0-.586.387-1.092.896-1.294l-1.242-3.417c-1.935-1.173-4.134-1.961-6.477-2.285v10.11h-.285V1.162h-.02zm-30.346.566c-1.426-.384-2.933-.586-4.481-.586-1.833 0-3.585.283-5.234.809l-7.23 19.715c.244.121.428.303.57.526l20.794-10.07-.012-.042a1.28 1.28 0 0 1-.069-.382c0-.465.244-.89.591-1.132l-4.929-8.836zM1.285 15.518C2.324 9.21 6.804 4.074 12.772 2.051L5.623 21.564a1.16 1.16 0 0 0-.367-.061 1.31 1.31 0 0 0-.57.121l-3.401-6.107zm61.731-7.502h1.894c-.305-.425-.652-.829-.998-1.213l-1.039.768a1.43 1.43 0 0 1 .143.445zm4.318 15.772a18.03 18.03 0 0 1-1.629 3.397L61.937 9.533a1.36 1.36 0 0 0 1.1-1.254h2.077c.916 1.314 1.69 2.77 2.22 4.307.529-1.557 1.283-2.993 2.22-4.307h23.279c.02.303.102.586.244.829L68.413 26.256a17.76 17.76 0 0 1-1.079-2.467zm33.605-5.601c0-3.397-.998-6.552-2.709-9.221l-1.772-.303a1.83 1.83 0 0 1-1.772 1.375c-.031 0-.056-.005-.082-.01s-.051-.01-.082-.01l-2.811 17.471c.346.081.652.283.896.526l7.597-4.893c.468-1.577.733-3.215.733-4.934zm-7.841 14.377c3.259-2.103 5.764-5.278 6.985-9.039l-7.291 4.711c.204.283.306.647.306 1.031a1.83 1.83 0 0 1-.876 1.557l.876 1.739zm-9.43 2.77c-2.322 0-4.521-.445-6.538-1.274l12.464-4.024c.285.607.916 1.031 1.65 1.031.265 0 .509-.04.733-.142l.876 1.779c-2.648 1.658-5.804 2.629-9.185 2.629zm-15.112-8.836a17.29 17.29 0 0 0 8.187 7.401l12.77-4.125c-.061-.162-.081-.344-.081-.526 0-1.011.835-1.84 1.853-1.84a.56.56 0 0 1 .092.01.56.56 0 0 0 .092.01l2.79-17.471c-.407-.101-.754-.324-.998-.627L68.556 26.498zm-17.373 8.836l-.957-1.961c.448-.222.815-.627.957-1.112l6.008 1.941a17.42 17.42 0 0 1-6.008 1.132zm-7.23-1.476c2.118.95 4.46 1.476 6.925 1.496l-.916-1.86a1.53 1.53 0 0 1-.529.081 1.83 1.83 0 0 1-1.609-.95l-3.87 1.233zm-9.267-10.009c-.672 1.961-1.69 3.761-2.994 5.338l-2.872-16.116c.489-.101.896-.465 1.039-.93l23.259 3.235-3.381 14.539c-.102-.02-.204-.04-.305-.04-1.018 0-1.853.829-1.853 1.84 0 .222.041.425.122.627l-4.114 1.335c-4.134-1.941-7.373-5.48-8.9-9.827zM6.825 31.088c3.055 2.71 7.088 4.368 11.507 4.368 5.255 0 9.959-2.325 13.116-5.985l-2.913-16.358a1.39 1.39 0 0 1-1.202-.708L6.56 22.474c.041.142.081.283.081.445a1.35 1.35 0 0 1-1.039 1.314l1.222 6.855zm-.346-.303a17.45 17.45 0 0 1-3.809-5.237l1.67-1.638c.244.223.55.344.896.344h.081l1.161 6.531zm-2.037-9.018l-3.218-5.783c-.102.748-.163 1.537-.163 2.325a16.94 16.94 0 0 0 1.487 6.976l1.609-1.557c-.183-.243-.305-.526-.305-.849.02-.445.244-.849.591-1.112zM23.179 1.829a17.29 17.29 0 0 1 11.426 10.697l-4.684-.647c.02-.04.02-.101.02-.142 0-.768-.611-1.375-1.385-1.375-.204 0-.387.04-.55.101l-4.827-8.634zM60.308 3.73a17.75 17.75 0 0 1 3.422 2.851l-.998.748c-.265-.303-.652-.506-1.08-.506-.061 0-.142 0-.204.02L60.308 3.73zm31.914-.445a17.32 17.32 0 0 0-8.574-2.265c-5.703 0-10.754 2.75-13.91 6.976h23.075c.061-.627.448-1.173.998-1.436l-1.589-3.276zm.428.243c2.139 1.314 3.972 3.053 5.377 5.116l-1.528-.263c0-.03.005-.061.01-.091a.55.55 0 0 0 .01-.091c0-1.011-.835-1.84-1.853-1.84-.204 0-.387.04-.57.101L92.65 3.528z" fill="#ec6825"/><path d="M25.521 13.901c.733 1.254 1.1 2.71 1.1 4.408 0 2.79-.815 4.893-2.444 6.289-1.629 1.436-3.89 2.143-6.802 2.143h-5.662V10.018h5.845c1.833 0 3.442.344 4.807 1.011s2.424 1.618 3.157 2.871zm-3.992 8.371c.917-.95 1.365-2.265 1.365-3.963 0-.991-.204-1.901-.591-2.71-.387-.789-.978-1.415-1.752-1.86s-1.69-.667-2.729-.667h-2.444v10.636h2.2c1.711 0 3.035-.485 3.951-1.436z" fill="#fff"/></g><path d="M44 27h14v-3.083h-9.175l8.68-11.429V10h-13.29v3.083h8.486L44 24.554V27zm40.861 1c2.543 0 4.589-.564 6.139-1.671v-8.332h-6.119v2.777h2.662v3.341c-.715.355-1.57.543-2.543.543-1.073 0-2.007-.23-2.821-.689a4.62 4.62 0 0 1-1.887-1.963c-.437-.856-.675-1.838-.675-2.986 0-1.128.238-2.109.735-2.944.477-.835 1.152-1.483 1.987-1.942s1.788-.689 2.841-.689c1.133 0 2.126.146 3.02.418s1.669.71 2.364 1.295v-3.592a8.06 8.06 0 0 0-2.523-1.19c-.914-.25-1.968-.376-3.16-.376-1.748 0-3.298.376-4.649 1.107a7.58 7.58 0 0 0-3.119 3.132C76.378 15.596 76 17.183 76 19.021s.377 3.425 1.113 4.761a7.7 7.7 0 0 0 3.119 3.132c1.311.71 2.861 1.086 4.629 1.086" fill="#fff"/></svg>